<?xml version="1.0" encoding="UTF-8" standalone="no"?>
<svg
   xmlns:dc="http://purl.org/dc/elements/1.1/"
   xmlns:cc="http://creativecommons.org/ns#"
   xmlns:rdf="http://www.w3.org/1999/02/22-rdf-syntax-ns#"
   xmlns:svg="http://www.w3.org/2000/svg"
   xmlns="http://www.w3.org/2000/svg"
   version="1.1"
   id="svg2"
   xml:space="preserve"
   width="366.9632"
   height="182.19116"
   viewBox="0 0 366.9632 182.19117"><metadata
     id="metadata8"><rdf:RDF><cc:Work
         rdf:about=""><dc:format>image/svg+xml</dc:format><dc:type
           rdf:resource="http://purl.org/dc/dcmitype/StillImage" /><dc:title></dc:title></cc:Work></rdf:RDF></metadata><defs
     id="defs6" /><g
     id="g10"
     transform="matrix(1.3333333,0,0,-1.3333333,67.278268,130.06425)"><g
       id="g12"
       style="stroke-width:0.774689"
       transform="matrix(1.2908408,0,0,1.2908408,-25.347503,-8.5002586)"><path
         d="m 0.344,0.688 h 25.39 V 4.906 L 19.719,5.328 18.25,6.719 v 20.047 h 11.531 l 1.203,-1.11 0.875,-6.297 h 5.079 V 39.422 H 31.859 L 30.984,33.141 29.781,32.016 H 18.25 v 21.437 h 16.609 l 1.125,-1.125 1.297,-8.344 h 5.938 V 58.453 H 0 V 54.234 L 5.516,53.797 6.891,52.594 V 6.719 L 5.516,5.328 0.344,4.906 Z"
         style="fill:#070707;fill-opacity:1;fill-rule:nonzero;stroke:none;stroke-width:0.774689"
         id="path14" /><path
         d="M 66.805,43.641 C 53.289,43.641 44.508,34.859 44.508,21.609 44.508,8.609 53.195,0 66.117,0 c 13.594,0 22.281,8.688 22.281,21.438 0,13.687 -8.421,22.203 -21.593,22.203 z m -0.344,-4.563 c 6.109,0 10.062,-6.109 10.062,-17.39 0,-11.188 -3.781,-17.126 -10.156,-17.126 -6.031,0 -9.89,6.11 -9.89,17.391 0,11.094 3.859,17.125 9.984,17.125 z"
         style="fill:#070707;fill-opacity:1;fill-rule:nonzero;stroke:none;stroke-width:0.774689"
         id="path16" /><path
         d="m 93.488,0.688 h 23.75 v 3.874 l -6.109,0.344 -1.297,1.297 v 24.703 c 2.672,1.625 4.734,2.406 6.125,2.406 2.484,0 4.297,-0.953 5.594,-3.093 h 4.469 l 1.125,11.875 c -1.891,0.937 -3.797,1.453 -5.688,1.453 -0.594,0 -1.281,-0.078 -1.891,-0.172 -3.531,-2.484 -6.968,-5.422 -10.078,-8.766 l 0.344,8.766 h -4.125 L 93.051,39.344 v -3.453 h 6.203 V 6.203 L 98.051,4.906 93.488,4.562 Z"
         style="fill:#070707;fill-opacity:1;fill-rule:nonzero;stroke:none;stroke-width:0.774689"
         id="path18" /><path
         d="m 152.711,43.641 c -13.516,0 -22.297,-8.782 -22.297,-22.032 0,-13 8.688,-21.609 21.609,-21.609 13.594,0 22.282,8.688 22.282,21.438 0,13.687 -8.422,22.203 -21.594,22.203 z m -0.344,-4.563 c 6.11,0 10.063,-6.109 10.063,-17.39 0,-11.188 -3.782,-17.126 -10.157,-17.126 -6.031,0 -9.89,6.11 -9.89,17.391 0,11.094 3.859,17.125 9.984,17.125 z"
         style="fill:#070707;fill-opacity:1;fill-rule:nonzero;stroke:none;stroke-width:0.774689"
         id="path20" /></g></g></svg>
